<svg xmlns="http://www.w3.org/2000/svg" width="921" height="324" fill="none" viewBox="0 0 921 324">
  <path fill="#000" d="M31.808 106.968c0-1.792-.597-3.2-1.792-4.224-.512-.512-.896-.939-1.152-1.28-.256-.427-.384-1.024-.384-1.792 0-.512.043-.896.128-1.152.427-2.133 1.408-3.883 2.944-5.248 1.621-1.45 3.499-2.176 5.632-2.176 2.39 0 4.48.768 6.272 2.304h17.408c11.947 0 21.12 2.688 27.52 8.064 6.4 5.291 9.6 12.715 9.6 22.272 0 9.557-3.115 17.024-9.344 22.4-6.23 5.376-15.232 8.064-27.008 8.064H48.96V183H31.808v-76.032Zm29.44 32.384c6.23 0 11.008-1.28 14.336-3.84 3.328-2.645 4.992-6.571 4.992-11.776 0-5.12-1.664-8.96-4.992-11.52-3.328-2.645-8.107-3.968-14.336-3.968H48.96v31.104h12.288Zm69.678 45.056c-6.4 0-12.032-1.323-16.896-3.968-4.779-2.731-8.491-6.528-11.136-11.392-2.56-4.949-3.84-10.624-3.84-17.024s1.28-12.032 3.84-16.896c2.645-4.949 6.357-8.747 11.136-11.392 4.864-2.731 10.496-4.096 16.896-4.096s11.989 1.365 16.768 4.096c4.864 2.645 8.576 6.443 11.136 11.392 2.645 4.864 3.968 10.496 3.968 16.896s-1.323 12.075-3.968 17.024c-2.56 4.864-6.272 8.661-11.136 11.392-4.779 2.645-10.368 3.968-16.768 3.968Zm0-13.696c4.864 0 8.533-1.621 11.008-4.864 2.475-3.328 3.712-7.936 3.712-13.824s-1.237-10.453-3.712-13.696c-2.475-3.328-6.144-4.992-11.008-4.992-4.864 0-8.533 1.664-11.008 4.992-2.475 3.243-3.712 7.808-3.712 13.696s1.237 10.496 3.712 13.824c2.475 3.243 6.144 4.864 11.008 4.864Zm69.756 13.568c-10.752 0-19.157-2.859-25.216-8.576-6.059-5.717-9.088-13.611-9.088-23.68 0-10.155 2.987-18.091 8.96-23.808 5.973-5.717 14.208-8.576 24.704-8.576 4.864 0 9.387.811 13.568 2.432 4.181 1.536 7.552 3.584 10.112 6.144l-5.76 11.136c-4.949-4.011-10.667-6.016-17.152-6.016-5.376 0-9.6 1.536-12.672 4.608-3.072 3.072-4.608 7.765-4.608 14.08 0 6.229 1.536 10.88 4.608 13.952 3.157 3.072 7.509 4.608 13.056 4.608 3.157 0 5.973-.469 8.448-1.408 2.56-1.024 4.992-2.645 7.296-4.864l8.832 9.216c-2.816 3.328-6.443 5.973-10.88 7.936-4.437 1.877-9.173 2.816-14.208 2.816Zm33.175-95.232h16.896v49.92l17.28-18.048h20.736l-29.696 29.44 32.64 32.64h-21.76l-19.2-20.096V183h-16.896V89.048Zm84.321 95.232c-10.24 0-18.347-2.859-24.32-8.576-5.888-5.717-8.832-13.483-8.832-23.296 0-6.4 1.195-12.075 3.584-17.024 2.389-4.949 5.931-8.789 10.624-11.52 4.693-2.816 10.368-4.224 17.024-4.224 6.485 0 12.117 1.365 16.896 4.096 4.779 2.645 8.405 6.315 10.88 11.008 2.475 4.608 3.712 9.771 3.712 15.488 0 2.816-.939 4.992-2.816 6.528-1.792 1.451-4.309 2.176-7.552 2.176h-35.584c0 3.499 1.493 6.315 4.48 8.448 3.072 2.133 7.04 3.2 11.904 3.2 4.011 0 7.381-.555 10.112-1.664a23.226 23.226 0 0 0 7.424-4.992l8.448 8.96c-2.816 3.584-6.443 6.4-10.88 8.448-4.437 1.963-9.472 2.944-15.104 2.944Zm12.8-38.528c0-3.755-1.408-6.784-4.224-9.088-2.731-2.389-6.229-3.584-10.496-3.584-4.096 0-7.552 1.195-10.368 3.584-2.731 2.304-4.096 5.333-4.096 9.088h29.184Zm49.047 38.4c-6.059 0-10.709-1.664-13.952-4.992-3.157-3.328-4.736-8.107-4.736-14.336v-30.336h-11.392l3.584-13.568h8.064v-12.928l16.384-7.552v20.48h16.64l-3.328 13.568h-13.056v30.72c0 1.963.427 3.371 1.28 4.224.853.853 2.176 1.28 3.968 1.28 2.133 0 4.053-.427 5.76-1.28l3.968 12.16c-1.451.683-3.456 1.28-6.016 1.792-2.475.512-4.864.768-7.168.768Zm98.357.128c-1.451-2.56-2.517-5.205-3.2-7.936-.597-2.816-.896-5.973-.896-9.472v-20.864c0-4.352-.725-7.552-2.176-9.6s-3.627-3.072-6.528-3.072c-6.741 0-10.112 4.224-10.112 12.672V183h-16.64v-37.12c0-4.523-.683-7.723-2.048-9.6-1.28-1.963-3.371-2.944-6.272-2.944-3.669 0-6.357 1.323-8.064 3.968-1.707 2.56-2.56 6.443-2.56 11.648V183H402.99v-44.672c0-2.56-.213-4.779-.64-6.656-.341-1.877-1.067-3.968-2.176-6.272l14.08-5.76c.768 1.365 1.451 2.987 2.048 4.864.683 1.877 1.067 3.499 1.152 4.864 1.792-3.157 4.181-5.547 7.168-7.168 2.987-1.707 6.187-2.56 9.6-2.56 6.741 0 11.733 3.157 14.976 9.472 2.731-3.328 5.675-5.717 8.832-7.168 3.157-1.536 6.912-2.304 11.264-2.304 6.997 0 12.373 2.048 16.128 6.144 3.84 4.096 5.76 9.472 5.76 16.128v24.576c0 4.693.853 8.747 2.56 12.16l-15.36 5.632Zm53.988.128c-6.4 0-12.032-1.323-16.896-3.968-4.779-2.731-8.491-6.528-11.136-11.392-2.56-4.949-3.84-10.624-3.84-17.024s1.28-12.032 3.84-16.896c2.645-4.949 6.357-8.747 11.136-11.392 4.864-2.731 10.496-4.096 16.896-4.096s11.989 1.365 16.768 4.096c4.864 2.645 8.576 6.443 11.136 11.392 2.645 4.864 3.968 10.496 3.968 16.896s-1.323 12.075-3.968 17.024c-2.56 4.864-6.272 8.661-11.136 11.392-4.779 2.645-10.368 3.968-16.768 3.968Zm0-13.696c4.864 0 8.533-1.621 11.008-4.864 2.475-3.328 3.712-7.936 3.712-13.824s-1.237-10.453-3.712-13.696c-2.475-3.328-6.144-4.992-11.008-4.992-4.864 0-8.533 1.664-11.008 4.992-2.475 3.243-3.712 7.808-3.712 13.696s1.237 10.496 3.712 13.824c2.475 3.243 6.144 4.864 11.008 4.864Zm91.566 13.696c-2.475-2.731-3.925-5.973-4.352-9.728-4.949 6.4-11.563 9.6-19.84 9.6-5.461 0-10.368-1.237-14.72-3.712s-7.765-6.059-10.24-10.752c-2.475-4.693-3.712-10.283-3.712-16.768 0-6.912 1.237-12.885 3.712-17.92 2.475-5.035 5.931-8.875 10.368-11.52 4.437-2.645 9.6-3.968 15.488-3.968 3.669 0 6.827.683 9.472 2.048 2.731 1.28 5.205 3.072 7.424 5.376V89.048h16.896v76.544c0 2.987.256 5.504.768 7.552.512 1.963 1.323 3.925 2.432 5.888l-13.696 5.376Zm-21.504-13.568c5.035 0 8.832-1.579 11.392-4.736 2.645-3.243 3.968-7.552 3.968-12.928v-2.304c0-5.035-1.28-9.259-3.84-12.672-2.475-3.413-6.144-5.12-11.008-5.12-4.864 0-8.576 1.707-11.136 5.12-2.56 3.413-3.84 8.363-3.84 14.848 0 5.803 1.237 10.24 3.712 13.312 2.475 2.987 6.059 4.48 10.752 4.48Z"/>
  <rect width="164" height="177" x="663.062" y="151.005" fill="#D9D9D9" rx="15" transform="rotate(-28.115 663.062 151.005)"/>
  <rect width="121" height="130" x="642" y="67.02" fill="#D9D9D9" rx="15" transform="rotate(-28.115 642 67.02)"/>
  <path stroke="#000" stroke-linecap="round" stroke-width="10" d="m669.476 73.882 25.447 47.628m-.098-53.235 22.148 41.454m1.666-54.177 22.148 41.454m-.751-60.823 25.447 47.628"/>
  <rect width="39" height="39" x="730.676" y="144.925" fill="#000" stroke="url(#a)" rx="4.5" transform="rotate(-28.115 730.676 144.925)"/>
  <path fill="#fff" d="M748.729 141.896a.336.336 0 0 0-.5-.109l-4.154 3.226a.335.335 0 0 0-.088.423l11.988 22.439c.088.163.29.226.453.139l4.572-2.443a.334.334 0 0 0 .135-.453l-4.487-8.4c-1.368-2.559-.868-4.863.254-5.463 1.009-.539 1.845.324 2.668 1.864l5.335 9.985c.087.163.29.226.452.139l4.595-2.455a.334.334 0 0 0 .135-.453l-5.734-10.732c-1.863-3.488-4.362-5.034-7.75-3.224-1.36.726-2.51 1.765-3.177 3.06-.133.258-.518.28-.655.023l-4.042-7.566Z"/>
  <path stroke="#000" stroke-opacity=".3" d="m769.756 134.249 10.584-5.655m-41.904 11.759-5.654-10.584m-8.891 28.985 10.584-5.655m28.738 32.972-5.655-10.584m15.496-35.064 10.584-5.655m-39.047 2.25-5.655-10.584m-11.746 38.494 10.584-5.655m31.594 23.462-5.655-10.584m12.64-25.554 10.584-5.655m-36.192-7.259-5.655-10.585m-14.601 48.004 10.584-5.655m34.449 13.953-5.655-10.584m9.785-16.045 10.584-5.655m-33.337-16.769-5.655-10.584m-17.456 57.513 10.584-5.655m37.304 4.444-5.655-10.584"/>
  <circle cx="706.789" cy="179.796" r="4" fill="#000" transform="rotate(-28.115 706.789 179.796)"/>
  <circle cx="806.456" cy="126.546" r="4" fill="#000" transform="rotate(-28.115 806.456 126.546)"/>
  <circle cx="807.015" cy="246.428" r="10" fill="#000" transform="rotate(-28.115 807.015 246.428)"/>
  <rect width="29" height="24" x="724.938" y="222.253" fill="#989898" rx="5" transform="rotate(-28.115 724.938 222.253)"/>
  <circle cx="743.147" cy="225.563" r="6.5" fill="#353535" transform="rotate(-28.115 743.147 225.563)"/>
  <rect width="29" height="24" x="806.083" y="178.899" fill="#989898" rx="5" transform="rotate(-28.115 806.083 178.899)"/>
  <circle cx="824.291" cy="182.209" r="6.5" fill="#353535" transform="rotate(-28.115 824.291 182.209)"/>
  <rect width="917" height="320" x="2" y="2" stroke="#000" stroke-width="4" rx="41"/>
  <path fill="#000" d="M25.12 249.008a6.16 6.16 0 0 0 .608-1.472c.128-.512.192-1.141.192-1.888v-19.136h4.224v9.504a6.71 6.71 0 0 1 2.08-1.344 6.617 6.617 0 0 1 2.592-.512c2.112 0 3.797.704 5.056 2.112 1.259 1.408 1.888 3.392 1.888 5.952 0 1.6-.32 3.019-.96 4.256-.619 1.216-1.483 2.165-2.592 2.848-1.088.661-2.293.992-3.616.992-2.07 0-3.723-.8-4.96-2.4a4.244 4.244 0 0 1-1.088 2.432l-3.424-1.344Zm8.8-2.048c1.173 0 2.07-.405 2.688-1.216.619-.832.928-2.005.928-3.52 0-3.136-1.248-4.704-3.744-4.704-1.195 0-2.112.437-2.752 1.312-.64.853-.96 1.899-.96 3.136v.576c0 1.344.32 2.421.96 3.232.661.789 1.621 1.184 2.88 1.184Zm15.803 3.36c-1.195 0-2.25-.267-3.168-.8-.917-.555-1.643-1.333-2.176-2.336-.512-1.024-.768-2.197-.768-3.52v-9.184h4.224v9.184c0 2.155 1.013 3.232 3.04 3.232 1.067 0 1.867-.352 2.4-1.056.533-.725.8-1.675.8-2.848v-8.512h4.224v11.168c0 .64.043 1.195.128 1.664.107.469.299.992.576 1.568l-3.744 1.44a8.231 8.231 0 0 1-.544-1.216c-.15-.469-.235-.875-.256-1.216-1.067 1.621-2.645 2.432-4.736 2.432Zm14.325-17.6c-.832 0-1.525-.256-2.08-.768-.533-.512-.8-1.163-.8-1.952 0-.789.267-1.44.8-1.952.555-.512 1.248-.768 2.08-.768.832 0 1.515.256 2.048.768.555.512.832 1.163.832 1.952 0 .789-.277 1.44-.832 1.952-.533.512-1.216.768-2.048.768Zm-2.112 1.76h4.224V250h-4.224v-15.52Zm7.497-7.968h4.224V250h-4.224v-23.488Zm19.446 23.84a4.244 4.244 0 0 1-1.088-2.432c-1.238 1.6-2.89 2.4-4.96 2.4-1.366 0-2.592-.309-3.68-.928s-1.942-1.515-2.56-2.688c-.619-1.173-.928-2.571-.928-4.192 0-1.728.31-3.221.928-4.48.618-1.259 1.482-2.219 2.592-2.88s2.4-.992 3.872-.992c.917 0 1.706.171 2.368.512a6.25 6.25 0 0 1 1.856 1.344v-9.504h4.224v19.136c0 .747.064 1.376.192 1.888.128.491.33.981.608 1.472l-3.424 1.344Zm-5.376-3.392c1.258 0 2.208-.395 2.848-1.184.661-.811.992-1.888.992-3.232v-.576c0-1.259-.32-2.315-.96-3.168-.619-.853-1.536-1.28-2.752-1.28-1.216 0-2.144.427-2.784 1.28-.64.853-.96 2.091-.96 3.712 0 1.451.31 2.56.928 3.328.618.747 1.514 1.12 2.688 1.12Zm25.109 3.36c-1.323 0-2.507-.309-3.552-.928-1.046-.619-1.867-1.515-2.464-2.688-.598-1.173-.896-2.571-.896-4.192 0-1.728.298-3.221.896-4.48.618-1.259 1.472-2.219 2.56-2.88 1.109-.661 2.4-.992 3.872-.992 1.728 0 3.168.651 4.32 1.952v-1.632h4.064v11.168c0 .747.064 1.365.192 1.856.128.491.33.981.608 1.472l-3.424 1.344c-.64-.704-1.003-1.504-1.088-2.4h-.064a6.227 6.227 0 0 1-2.208 1.792c-.854.405-1.792.608-2.816.608Zm.864-3.36c1.237 0 2.176-.395 2.816-1.184.64-.811.96-1.888.96-3.232v-.576c0-1.237-.32-2.283-.96-3.136-.619-.875-1.515-1.312-2.688-1.312-1.195 0-2.112.427-2.752 1.28-.619.853-.928 2.091-.928 3.712 0 1.451.298 2.56.896 3.328.618.747 1.504 1.12 2.656 1.12Zm31.352 3.392a4.238 4.238 0 0 1-1.088-2.432c-1.238 1.6-2.891 2.4-4.96 2.4-1.366 0-2.592-.309-3.68-.928s-1.942-1.515-2.56-2.688c-.619-1.173-.928-2.571-.928-4.192 0-1.728.309-3.221.928-4.48.618-1.259 1.482-2.219 2.592-2.88 1.109-.661 2.4-.992 3.872-.992.917 0 1.706.171 2.368.512.682.32 1.301.768 1.856 1.344v-9.504h4.224v19.136c0 .747.064 1.376.192 1.888.128.491.33.981.608 1.472l-3.424 1.344Zm-5.376-3.392c1.258 0 2.208-.395 2.848-1.184.661-.811.992-1.888.992-3.232v-.576c0-1.259-.32-2.315-.96-3.168-.619-.853-1.536-1.28-2.752-1.28-1.216 0-2.144.427-2.784 1.28-.64.853-.96 2.091-.96 3.712 0 1.451.309 2.56.928 3.328.618.747 1.514 1.12 2.688 1.12Zm18.459 3.392c-1.6 0-3.008-.331-4.224-.992a7.15 7.15 0 0 1-2.784-2.848c-.64-1.237-.96-2.656-.96-4.256s.32-3.008.96-4.224c.661-1.237 1.589-2.187 2.784-2.848 1.216-.683 2.624-1.024 4.224-1.024s2.997.341 4.192 1.024a6.644 6.644 0 0 1 2.784 2.848c.661 1.216.992 2.624.992 4.224s-.331 3.019-.992 4.256a6.887 6.887 0 0 1-2.784 2.848c-1.195.661-2.592.992-4.192.992Zm0-3.424c1.216 0 2.133-.405 2.752-1.216.618-.832.928-1.984.928-3.456s-.31-2.613-.928-3.424c-.619-.832-1.536-1.248-2.752-1.248-1.216 0-2.134.416-2.752 1.248-.619.811-.928 1.952-.928 3.424s.309 2.624.928 3.456c.618.811 1.536 1.216 2.752 1.216Zm21.867 3.392a7.93 7.93 0 0 1-.8-1.984 11.471 11.471 0 0 1-.224-2.368v-5.152c0-2.155-.896-3.232-2.688-3.232-1.066 0-1.93.416-2.592 1.248-.64.832-.96 1.888-.96 3.168v8h-4.224v-11.168c0-.64-.053-1.195-.16-1.664-.085-.469-.266-.992-.544-1.568l3.744-1.44c.192.341.363.747.512 1.216.171.469.267.875.288 1.216a7.156 7.156 0 0 1 2.272-1.76 6.553 6.553 0 0 1 2.912-.672c1.984 0 3.424.576 4.32 1.728.896 1.131 1.344 2.773 1.344 4.928v5.056c0 1.173.214 2.187.64 3.04l-3.84 1.408Zm12.842 6.656c-1.92 0-3.798-.469-5.632-1.408l1.248-3.04c1.301.683 2.762 1.024 4.384 1.024 1.6 0 2.72-.395 3.36-1.184.64-.789.96-1.909.96-3.36v-.864a5.972 5.972 0 0 1-1.92 1.376c-.747.32-1.568.48-2.464.48-2.176 0-3.926-.683-5.248-2.048-1.323-1.387-1.984-3.349-1.984-5.888 0-1.685.298-3.125.896-4.32.597-1.195 1.418-2.101 2.464-2.72 1.045-.619 2.25-.928 3.616-.928 2.048 0 3.765.8 5.152 2.4a4.238 4.238 0 0 1 1.088-2.432l3.424 1.344a6.12 6.12 0 0 0-.608 1.472c-.128.491-.192 1.12-.192 1.888v9.856c0 2.731-.736 4.8-2.208 6.208-1.451 1.429-3.563 2.144-6.336 2.144Zm.672-10.336c1.194 0 2.112-.427 2.752-1.28.64-.875.96-1.931.96-3.168v-.32c0-1.344-.331-2.411-.992-3.2-.64-.811-1.59-1.216-2.848-1.216-1.174 0-2.07.395-2.688 1.184-.619.768-.928 1.909-.928 3.424 0 1.579.309 2.741.928 3.488.64.725 1.578 1.088 2.816 1.088Zm10.683-20.128h4.224V250h-4.224v-23.488Zm14.517 23.808c-2.56 0-4.586-.715-6.08-2.144-1.472-1.429-2.208-3.371-2.208-5.824 0-1.6.299-3.019.896-4.256a6.559 6.559 0 0 1 2.656-2.88c1.174-.704 2.592-1.056 4.256-1.056 1.622 0 3.03.341 4.224 1.024 1.195.661 2.102 1.579 2.72 2.752.619 1.152.928 2.443.928 3.872 0 .704-.234 1.248-.704 1.632-.448.363-1.077.544-1.888.544h-8.896c0 .875.374 1.579 1.12 2.112.768.533 1.76.8 2.976.8 1.003 0 1.846-.139 2.528-.416a5.812 5.812 0 0 0 1.856-1.248l2.112 2.24c-.704.896-1.61 1.6-2.72 2.112-1.109.491-2.368.736-3.776.736Zm3.2-9.632c0-.939-.352-1.696-1.056-2.272-.682-.597-1.557-.896-2.624-.896-1.024 0-1.888.299-2.592.896-.682.576-1.024 1.333-1.024 2.272h7.296Zm16.108-2.816h-2.848l.896-3.392h1.952v-2.656c0-1.579.523-2.869 1.568-3.872 1.067-1.003 2.507-1.504 4.32-1.504.555 0 1.152.085 1.792.256.64.149 1.174.352 1.6.608l-.768 3.072a6.093 6.093 0 0 0-1.056-.352 4.882 4.882 0 0 0-1.184-.16c-.661 0-1.173.171-1.536.512-.341.341-.512.843-.512 1.504v2.592h4.608l-.864 3.392h-3.744V250H233.8v-12.128Zm16.522 12.48c-1.6 0-3.008-.331-4.224-.992a7.15 7.15 0 0 1-2.784-2.848c-.64-1.237-.96-2.656-.96-4.256s.32-3.008.96-4.224c.661-1.237 1.589-2.187 2.784-2.848 1.216-.683 2.624-1.024 4.224-1.024s2.997.341 4.192 1.024a6.644 6.644 0 0 1 2.784 2.848c.661 1.216.992 2.624.992 4.224s-.331 3.019-.992 4.256a6.887 6.887 0 0 1-2.784 2.848c-1.195.661-2.592.992-4.192.992Zm0-3.424c1.216 0 2.133-.405 2.752-1.216.618-.832.928-1.984.928-3.456s-.31-2.613-.928-3.424c-.619-.832-1.536-1.248-2.752-1.248-1.216 0-2.134.416-2.752 1.248-.619.811-.928 1.952-.928 3.424s.309 2.624.928 3.456c.618.811 1.536 1.216 2.752 1.216Zm10.379-8.096c0-.64-.053-1.195-.16-1.664-.085-.469-.267-.992-.544-1.568l3.744-1.44c.192.341.363.747.512 1.216.171.469.267.875.288 1.216.576-.811 1.173-1.419 1.792-1.824.64-.405 1.365-.608 2.176-.608.64 0 1.195.085 1.664.256.491.171 1.003.459 1.536.864l-1.568 2.912a4.364 4.364 0 0 0-.992-.448 2.924 2.924 0 0 0-.992-.16c-1.109 0-1.931.341-2.464 1.024-.512.683-.768 1.717-.768 3.104V250h-4.224v-11.168Zm20.859 15.104c1.45-.491 2.592-1.141 3.424-1.952.853-.789 1.45-1.909 1.792-3.36l-6.304-14.144h4.896l3.584 9.536 3.264-9.536h4.864l-6.304 15.584c-.811 1.984-1.814 3.52-3.008 4.608-1.195 1.088-2.859 1.973-4.992 2.656l-1.216-3.392Zm23.085-3.584c-1.6 0-3.008-.331-4.224-.992a7.163 7.163 0 0 1-2.784-2.848c-.64-1.237-.96-2.656-.96-4.256s.32-3.008.96-4.224c.662-1.237 1.59-2.187 2.784-2.848 1.216-.683 2.624-1.024 4.224-1.024s2.998.341 4.192 1.024a6.644 6.644 0 0 1 2.784 2.848c.662 1.216.992 2.624.992 4.224s-.33 3.019-.992 4.256a6.887 6.887 0 0 1-2.784 2.848c-1.194.661-2.592.992-4.192.992Zm0-3.424c1.216 0 2.134-.405 2.752-1.216.619-.832.928-1.984.928-3.456s-.309-2.613-.928-3.424c-.618-.832-1.536-1.248-2.752-1.248-1.216 0-2.133.416-2.752 1.248-.618.811-.928 1.952-.928 3.424s.31 2.624.928 3.456c.619.811 1.536 1.216 2.752 1.216Zm15.948 3.392c-1.195 0-2.251-.267-3.168-.8-.917-.555-1.643-1.333-2.176-2.336-.512-1.024-.768-2.197-.768-3.52v-9.184h4.224v9.184c0 2.155 1.013 3.232 3.04 3.232 1.067 0 1.867-.352 2.4-1.056.533-.725.8-1.675.8-2.848v-8.512h4.224v11.168c0 .64.043 1.195.128 1.664.107.469.299.992.576 1.568l-3.744 1.44a8.263 8.263 0 0 1-.544-1.216c-.149-.469-.235-.875-.256-1.216-1.067 1.621-2.645 2.432-4.736 2.432Zm11.669-11.488c0-.64-.053-1.195-.16-1.664-.085-.469-.266-.992-.544-1.568l3.744-1.44c.192.341.363.747.512 1.216.171.469.267.875.288 1.216.576-.811 1.174-1.419 1.792-1.824.64-.405 1.366-.608 2.176-.608.64 0 1.195.085 1.664.256.491.171 1.003.459 1.536.864l-1.568 2.912a4.345 4.345 0 0 0-.992-.448 2.92 2.92 0 0 0-.992-.16c-1.109 0-1.93.341-2.464 1.024-.512.683-.768 1.717-.768 3.104V250h-4.224v-11.168Zm20.571-.064c0-.768-.064-1.397-.192-1.888a6.16 6.16 0 0 0-.608-1.472l3.424-1.344a4.25 4.25 0 0 1 1.088 2.432c1.386-1.6 3.104-2.4 5.152-2.4 1.344 0 2.538.32 3.584.96 1.066.64 1.898 1.568 2.496 2.784.597 1.216.896 2.667.896 4.352 0 1.685-.31 3.136-.928 4.352-.598 1.216-1.44 2.144-2.528 2.784-1.088.619-2.347.928-3.776.928-.896 0-1.718-.16-2.464-.48a5.95 5.95 0 0 1-1.92-1.376v8.608h-4.224v-18.24Zm7.872 8.128c2.496 0 3.744-1.568 3.744-4.704 0-1.515-.31-2.677-.928-3.488-.619-.832-1.515-1.248-2.688-1.248-1.259 0-2.219.405-2.88 1.216-.64.789-.96 1.856-.96 3.2v.576c0 1.237.32 2.293.96 3.168.64.853 1.557 1.28 2.752 1.28Zm18.235 3.424c-2.688 0-4.79-.715-6.304-2.144-1.515-1.429-2.272-3.403-2.272-5.92 0-2.539.746-4.523 2.24-5.952 1.493-1.429 3.552-2.144 6.176-2.144 1.216 0 2.346.203 3.392.608 1.045.384 1.888.896 2.528 1.536l-1.44 2.784c-1.238-1.003-2.667-1.504-4.288-1.504-1.344 0-2.4.384-3.168 1.152-.768.768-1.152 1.941-1.152 3.52 0 1.557.384 2.72 1.152 3.488.789.768 1.877 1.152 3.264 1.152.789 0 1.493-.117 2.112-.352.64-.256 1.248-.661 1.824-1.216l2.208 2.304c-.704.832-1.611 1.493-2.72 1.984a9.032 9.032 0 0 1-3.552.704Zm7.973 1.472a4.97 4.97 0 0 0 1.344-.832c.448-.363.758-.736.928-1.12a1.958 1.958 0 0 1-1.44-.672c-.384-.427-.576-.907-.576-1.44 0-.747.246-1.344.736-1.792.491-.448 1.131-.672 1.92-.672.854 0 1.515.256 1.984.768.491.491.736 1.163.736 2.016 0 1.195-.384 2.304-1.152 3.328-.768 1.024-1.888 1.867-3.36 2.528l-1.12-2.112ZM32.416 298.976c-1.92 0-3.797-.469-5.632-1.408l1.248-3.04c1.301.683 2.763 1.024 4.384 1.024 1.6 0 2.72-.395 3.36-1.184.64-.789.96-1.909.96-3.36v-.864a5.957 5.957 0 0 1-1.92 1.376c-.747.32-1.568.48-2.464.48-2.176 0-3.925-.683-5.248-2.048-1.323-1.387-1.984-3.349-1.984-5.888 0-1.685.299-3.125.896-4.32.597-1.195 1.419-2.101 2.464-2.72 1.045-.619 2.25-.928 3.616-.928 2.048 0 3.765.8 5.152 2.4a4.244 4.244 0 0 1 1.088-2.432l3.424 1.344c-.277.491-.48.981-.608 1.472s-.192 1.12-.192 1.888v9.856c0 2.731-.736 4.8-2.208 6.208-1.45 1.429-3.563 2.144-6.336 2.144Zm.672-10.336c1.195 0 2.112-.427 2.752-1.28.64-.875.96-1.931.96-3.168v-.32c0-1.344-.33-2.411-.992-3.2-.64-.811-1.59-1.216-2.848-1.216-1.173 0-2.07.395-2.688 1.184-.619.768-.928 1.909-.928 3.424 0 1.579.31 2.741.928 3.488.64.725 1.579 1.088 2.816 1.088Zm18.651 3.68c-2.56 0-4.587-.715-6.08-2.144-1.472-1.429-2.208-3.371-2.208-5.824 0-1.6.299-3.019.896-4.256a6.553 6.553 0 0 1 2.656-2.88c1.173-.704 2.592-1.056 4.256-1.056 1.621 0 3.03.341 4.224 1.024 1.195.661 2.101 1.579 2.72 2.752.619 1.152.928 2.443.928 3.872 0 .704-.235 1.248-.704 1.632-.448.363-1.077.544-1.888.544h-8.896c0 .875.373 1.579 1.12 2.112.768.533 1.76.8 2.976.8 1.003 0 1.845-.139 2.528-.416a5.815 5.815 0 0 0 1.856-1.248l2.112 2.24c-.704.896-1.61 1.6-2.72 2.112-1.11.491-2.368.736-3.776.736Zm3.2-9.632c0-.939-.352-1.696-1.056-2.272-.683-.597-1.557-.896-2.624-.896-1.024 0-1.888.299-2.592.896-.683.576-1.024 1.333-1.024 2.272h7.296Zm12.262 9.6c-1.515 0-2.678-.416-3.488-1.248-.79-.832-1.184-2.027-1.184-3.584v-7.584H59.68l.896-3.392h2.016v-3.232l4.096-1.888v5.12h4.16l-.832 3.392h-3.264v7.68c0 .491.106.843.32 1.056.213.213.544.32.992.32a3.18 3.18 0 0 0 1.44-.32l.992 3.04c-.363.171-.864.32-1.504.448a8.84 8.84 0 0 1-1.792.192Zm16.103-17.568c-.832 0-1.525-.256-2.08-.768-.533-.512-.8-1.163-.8-1.952 0-.789.267-1.44.8-1.952.555-.512 1.248-.768 2.08-.768.832 0 1.515.256 2.048.768.555.512.832 1.163.832 1.952 0 .789-.277 1.44-.832 1.952-.533.512-1.216.768-2.048.768Zm-2.112 1.76h4.224V292h-4.224v-15.52Zm14.377 15.808c-1.515 0-2.678-.416-3.488-1.248-.79-.832-1.184-2.027-1.184-3.584v-7.584h-2.848l.896-3.392h2.016v-3.232l4.096-1.888v5.12h4.16l-.832 3.392H95.12v7.68c0 .491.106.843.32 1.056.213.213.544.32.992.32a3.18 3.18 0 0 0 1.44-.32l.992 3.04c-.363.171-.864.32-1.504.448a8.84 8.84 0 0 1-1.792.192Zm20.519.032c-1.515 0-2.944-.267-4.288-.8a10.541 10.541 0 0 1-3.488-2.368l2.368-2.528a7.585 7.585 0 0 0 2.464 1.76 7.208 7.208 0 0 0 2.944.608c.661 0 1.163-.096 1.504-.288.341-.213.512-.501.512-.864 0-.277-.075-.512-.224-.704-.128-.192-.427-.395-.896-.608-.469-.213-1.184-.469-2.144-.768-2.112-.661-3.605-1.376-4.48-2.144-.875-.789-1.312-1.813-1.312-3.072 0-1.387.555-2.464 1.664-3.232 1.109-.768 2.667-1.152 4.672-1.152 2.261 0 4.299.64 6.112 1.92l-1.44 2.752c-.896-.491-1.707-.832-2.432-1.024a8.022 8.022 0 0 0-2.272-.32c-.704 0-1.227.096-1.568.288-.341.171-.512.427-.512.768 0 .277.085.512.256.704.192.171.512.352.96.544.448.192 1.131.427 2.048.704 1.451.448 2.581.907 3.392 1.376.832.469 1.44 1.024 1.824 1.664.384.64.576 1.44.576 2.4 0 1.323-.555 2.389-1.664 3.2-1.109.789-2.635 1.184-4.576 1.184Zm19.578 0a7.892 7.892 0 0 1-.8-1.984 11.471 11.471 0 0 1-.224-2.368v-5.152c0-2.155-.896-3.232-2.688-3.232-1.067 0-1.931.416-2.592 1.248-.64.832-.96 1.888-.96 3.168v8h-4.224v-23.488h4.224v9.664a7.248 7.248 0 0 1 2.112-1.472 5.977 5.977 0 0 1 2.528-.544c3.883 0 5.824 2.219 5.824 6.656v5.056c0 1.173.213 2.187.64 3.04l-3.84 1.408Zm8.887-17.6c-.832 0-1.526-.256-2.08-.768-.534-.512-.8-1.163-.8-1.952 0-.789.266-1.44.8-1.952.554-.512 1.248-.768 2.08-.768.832 0 1.514.256 2.048.768.554.512.832 1.163.832 1.952 0 .789-.278 1.44-.832 1.952-.534.512-1.216.768-2.048.768Zm-2.112 1.76h4.224V292h-4.224v-15.52Zm7.976 4.288c0-.768-.064-1.397-.192-1.888a6.12 6.12 0 0 0-.608-1.472l3.424-1.344a4.238 4.238 0 0 1 1.088 2.432c1.387-1.6 3.104-2.4 5.152-2.4 1.344 0 2.539.32 3.584.96 1.067.64 1.899 1.568 2.496 2.784.598 1.216.896 2.667.896 4.352 0 1.685-.309 3.136-.928 4.352-.597 1.216-1.44 2.144-2.528 2.784-1.088.619-2.346.928-3.776.928-.896 0-1.717-.16-2.464-.48a5.972 5.972 0 0 1-1.92-1.376v8.608h-4.224v-18.24Zm7.872 8.128c2.496 0 3.744-1.568 3.744-4.704 0-1.515-.309-2.677-.928-3.488-.618-.832-1.514-1.248-2.688-1.248-1.258 0-2.218.405-2.88 1.216-.64.789-.96 1.856-.96 3.2v.576c0 1.237.32 2.293.96 3.168.64.853 1.558 1.28 2.752 1.28Zm10.46-8.128c0-.768-.064-1.397-.192-1.888a6.16 6.16 0 0 0-.608-1.472l3.424-1.344a4.25 4.25 0 0 1 1.088 2.432c1.386-1.6 3.104-2.4 5.152-2.4 1.344 0 2.538.32 3.584.96 1.066.64 1.898 1.568 2.496 2.784.597 1.216.896 2.667.896 4.352 0 1.685-.31 3.136-.928 4.352-.598 1.216-1.44 2.144-2.528 2.784-1.088.619-2.347.928-3.776.928-.896 0-1.718-.16-2.464-.48a5.95 5.95 0 0 1-1.92-1.376v8.608h-4.224v-18.24Zm7.872 8.128c2.496 0 3.744-1.568 3.744-4.704 0-1.515-.31-2.677-.928-3.488-.619-.832-1.515-1.248-2.688-1.248-1.259 0-2.219.405-2.88 1.216-.64.789-.96 1.856-.96 3.2v.576c0 1.237.32 2.293.96 3.168.64.853 1.557 1.28 2.752 1.28Zm17.947 3.424c-2.56 0-4.587-.715-6.08-2.144-1.472-1.429-2.208-3.371-2.208-5.824 0-1.6.298-3.019.896-4.256a6.547 6.547 0 0 1 2.656-2.88c1.173-.704 2.592-1.056 4.256-1.056 1.621 0 3.029.341 4.224 1.024 1.194.661 2.101 1.579 2.72 2.752.618 1.152.928 2.443.928 3.872 0 .704-.235 1.248-.704 1.632-.448.363-1.078.544-1.888.544h-8.896c0 .875.373 1.579 1.12 2.112.768.533 1.76.8 2.976.8 1.002 0 1.845-.139 2.528-.416a5.823 5.823 0 0 0 1.856-1.248l2.112 2.24c-.704.896-1.611 1.6-2.72 2.112-1.11.491-2.368.736-3.776.736Zm3.2-9.632c0-.939-.352-1.696-1.056-2.272-.683-.597-1.558-.896-2.624-.896-1.024 0-1.888.299-2.592.896-.683.576-1.024 1.333-1.024 2.272h7.296Zm18.277 9.664a4.25 4.25 0 0 1-1.088-2.432c-1.237 1.6-2.89 2.4-4.96 2.4-1.365 0-2.592-.309-3.68-.928s-1.941-1.515-2.56-2.688c-.618-1.173-.928-2.571-.928-4.192 0-1.728.31-3.221.928-4.48.619-1.259 1.483-2.219 2.592-2.88 1.11-.661 2.4-.992 3.872-.992.918 0 1.707.171 2.368.512.683.32 1.302.768 1.856 1.344v-9.504h4.224v19.136c0 .747.064 1.376.192 1.888.128.491.331.981.608 1.472l-3.424 1.344Zm-5.376-3.392c1.259 0 2.208-.395 2.848-1.184.662-.811.992-1.888.992-3.232v-.576c0-1.259-.32-2.315-.96-3.168-.618-.853-1.536-1.28-2.752-1.28-1.216 0-2.144.427-2.784 1.28-.64.853-.96 2.091-.96 3.712 0 1.451.31 2.56.928 3.328.619.747 1.515 1.12 2.688 1.12Zm33.589-4.384h-5.408v5.696h-4.288v-5.696h-5.408v-3.392h5.408v-5.696h4.288v5.696h5.408v3.392Zm10.476-3.808c0-.768-.064-1.397-.192-1.888a6.12 6.12 0 0 0-.608-1.472l3.424-1.344a4.238 4.238 0 0 1 1.088 2.432c1.387-1.6 3.104-2.4 5.152-2.4 1.344 0 2.539.32 3.584.96 1.067.64 1.899 1.568 2.496 2.784.598 1.216.896 2.667.896 4.352 0 1.685-.309 3.136-.928 4.352-.597 1.216-1.44 2.144-2.528 2.784-1.088.619-2.346.928-3.776.928-.896 0-1.717-.16-2.464-.48a5.972 5.972 0 0 1-1.92-1.376v8.608h-4.224v-18.24Zm7.872 8.128c2.496 0 3.744-1.568 3.744-4.704 0-1.515-.309-2.677-.928-3.488-.618-.832-1.514-1.248-2.688-1.248-1.258 0-2.218.405-2.88 1.216-.64.789-.96 1.856-.96 3.2v.576c0 1.237.32 2.293.96 3.168.64.853 1.558 1.28 2.752 1.28Zm10.363-8.064c0-.64-.053-1.195-.16-1.664-.085-.469-.266-.992-.544-1.568l3.744-1.44c.192.341.363.747.512 1.216.171.469.267.875.288 1.216.576-.811 1.174-1.419 1.792-1.824.64-.405 1.366-.608 2.176-.608.64 0 1.195.085 1.664.256.491.171 1.003.459 1.536.864l-1.568 2.912a4.345 4.345 0 0 0-.992-.448 2.92 2.92 0 0 0-.992-.16c-1.109 0-1.93.341-2.464 1.024-.512.683-.768 1.717-.768 3.104V292h-4.224v-11.168Zm15.425-6.112c-.832 0-1.525-.256-2.08-.768-.533-.512-.8-1.163-.8-1.952 0-.789.267-1.44.8-1.952.555-.512 1.248-.768 2.08-.768.832 0 1.515.256 2.048.768.555.512.832 1.163.832 1.952 0 .789-.277 1.44-.832 1.952-.533.512-1.216.768-2.048.768Zm-2.112 1.76h4.224V292h-4.224v-15.52Zm9.897 15.712c-.15.085-.342.128-.576.128-.32 0-.662-.117-1.024-.352-.342-.235-.651-.608-.928-1.12-.128-.256-.192-.491-.192-.704 0-.405.213-.747.64-1.024.17-.107.33-.245.48-.416l8.192-8.832h-8.512v-3.392h10.72c.448 0 .757-.053.928-.16.149-.107.352-.16.608-.16.277 0 .554.075.832.224.298.128.565.341.8.64.341.448.512.832.512 1.152 0 .363-.171.725-.512 1.088l-8.672 9.344h9.088V292h-11.392c-.427 0-.758.064-.992.192Zm21.649.128c-2.56 0-4.587-.715-6.08-2.144-1.472-1.429-2.208-3.371-2.208-5.824 0-1.6.298-3.019.896-4.256a6.547 6.547 0 0 1 2.656-2.88c1.173-.704 2.592-1.056 4.256-1.056 1.621 0 3.029.341 4.224 1.024 1.194.661 2.101 1.579 2.72 2.752.618 1.152.928 2.443.928 3.872 0 .704-.235 1.248-.704 1.632-.448.363-1.078.544-1.888.544h-8.896c0 .875.373 1.579 1.12 2.112.768.533 1.76.8 2.976.8 1.002 0 1.845-.139 2.528-.416a5.823 5.823 0 0 0 1.856-1.248l2.112 2.24c-.704.896-1.611 1.6-2.72 2.112-1.11.491-2.368.736-3.776.736Zm3.2-9.632c0-.939-.352-1.696-1.056-2.272-.683-.597-1.558-.896-2.624-.896-1.024 0-1.888.299-2.592.896-.683.576-1.024 1.333-1.024 2.272h7.296Zm12.838 9.632c-1.515 0-2.944-.267-4.288-.8a10.531 10.531 0 0 1-3.488-2.368l2.368-2.528a7.574 7.574 0 0 0 2.464 1.76 7.204 7.204 0 0 0 2.944.608c.661 0 1.162-.096 1.504-.288.341-.213.512-.501.512-.864 0-.277-.075-.512-.224-.704-.128-.192-.427-.395-.896-.608-.47-.213-1.184-.469-2.144-.768-2.112-.661-3.606-1.376-4.48-2.144-.875-.789-1.312-1.813-1.312-3.072 0-1.387.554-2.464 1.664-3.232 1.109-.768 2.666-1.152 4.672-1.152 2.261 0 4.298.64 6.112 1.92l-1.44 2.752c-.896-.491-1.707-.832-2.432-1.024a8.027 8.027 0 0 0-2.272-.32c-.704 0-1.227.096-1.568.288-.342.171-.512.427-.512.768 0 .277.085.512.256.704.192.171.512.352.96.544.448.192 1.13.427 2.048.704 1.45.448 2.581.907 3.392 1.376.832.469 1.44 1.024 1.824 1.664.384.64.576 1.44.576 2.4 0 1.323-.555 2.389-1.664 3.2-1.11.789-2.635 1.184-4.576 1.184Z"/>
  <defs>
    <linearGradient id="a" x1="749.999" x2="749.999" y1="144.72" y2="184.72" gradientUnits="userSpaceOnUse">
      <stop stop-color="red"/>
      <stop offset="1" stop-color="#1A00FF"/>
    </linearGradient>
  </defs>
</svg>
