<svg xmlns="http://www.w3.org/2000/svg" width="250" height="298" fill="none" viewBox="0 0 250 298">
  <rect width="164" height="177" x="21.062" y="141.005" fill="#D9D9D9" rx="15" transform="rotate(-28.115 21.062 141.005)"/>
  <rect width="121" height="130" y="57.02" fill="#D9D9D9" rx="15" transform="rotate(-28.115 0 57.02)"/>
  <path stroke="#000" stroke-linecap="round" stroke-width="10" d="m27.476 63.882 25.447 47.628m-.098-53.235 22.148 41.454m1.666-54.177 22.148 41.454m-.751-60.823 25.447 47.628"/>
  <rect width="39" height="39" x="88.676" y="134.925" fill="#000" stroke="url(#a)" rx="4.5" transform="rotate(-28.115 88.676 134.925)"/>
  <path fill="#fff" d="M106.729 131.896a.336.336 0 0 0-.5-.109l-4.154 3.226a.335.335 0 0 0-.088.423l11.988 22.439c.088.163.29.226.453.139l4.572-2.443a.334.334 0 0 0 .135-.453l-4.487-8.4c-1.368-2.559-.868-4.863.254-5.463 1.009-.539 1.845.324 2.668 1.864l5.335 9.985c.087.163.29.226.452.139l4.595-2.455a.334.334 0 0 0 .135-.453l-5.734-10.732c-1.863-3.488-4.362-5.034-7.75-3.224-1.36.726-2.51 1.765-3.177 3.06-.133.258-.518.28-.655.023l-4.042-7.566Z"/>
  <path stroke="#000" stroke-opacity=".3" d="m127.756 124.249 10.584-5.655m-41.904 11.759-5.655-10.584m-8.89 28.985 10.584-5.655m28.738 32.972-5.655-10.584m15.496-35.064 10.584-5.655m-39.047 2.25-5.655-10.584M85.19 154.928l10.584-5.655m31.594 23.462-5.655-10.584m12.64-25.554 10.584-5.655m-36.192-7.259-5.655-10.585m-14.601 48.004 10.584-5.655m34.449 13.953-5.655-10.584m9.785-16.045 10.584-5.655m-33.337-16.769-5.655-10.584m-17.456 57.513 10.584-5.655m37.304 4.444-5.655-10.584"/>
  <circle cx="64.789" cy="169.796" r="4" fill="#000" transform="rotate(-28.115 64.79 169.796)"/>
  <circle cx="164.456" cy="116.546" r="4" fill="#000" transform="rotate(-28.115 164.456 116.546)"/>
  <circle cx="165.015" cy="236.428" r="10" fill="#000" transform="rotate(-28.115 165.015 236.428)"/>
  <rect width="29" height="24" x="82.939" y="212.253" fill="#989898" rx="5" transform="rotate(-28.115 82.939 212.253)"/>
  <circle cx="101.147" cy="215.563" r="6.5" fill="#353535" transform="rotate(-28.115 101.147 215.563)"/>
  <rect width="29" height="24" x="164.083" y="168.899" fill="#989898" rx="5" transform="rotate(-28.115 164.083 168.899)"/>
  <circle cx="182.291" cy="172.209" r="6.5" fill="#353535" transform="rotate(-28.115 182.291 172.209)"/>
  <defs>
    <linearGradient id="a" x1="107.999" x2="107.999" y1="134.72" y2="174.72" gradientUnits="userSpaceOnUse">
      <stop stop-color="red"/>
      <stop offset="1" stop-color="#1A00FF"/>
    </linearGradient>
  </defs>
</svg>
